<?xml version="1.0" encoding="utf-8"?>
<!-- Generator: Adobe Illustrator 24.3.0, SVG Export Plug-In . SVG Version: 6.00 Build 0)  -->
<svg version="1.1" id="Camada_1" xmlns="http://www.w3.org/2000/svg" xmlns:xlink="http://www.w3.org/1999/xlink" x="0px" y="0px"
	 viewBox="0 0 336.41 114.87" style="enable-background:new 0 0 336.41 114.87;" xml:space="preserve">
<style type="text/css">
	.st0{fill:#823475;}
	.st1{fill:#00A3A6;}
	.st2{fill:#354794;}
</style>
<g>
	<path class="st0" d="M67.88,29.19c-11.47,0.05-22.14,3.49-31.07,9.36c-0.81-1.86-1.69-3.69-2.66-5.47
		c-0.73-1.37-1.53-2.71-2.36-4.02c2.71-1.73,5.56-3.27,8.53-4.61c7.81-3.51,16.41-5.59,25.44-5.9
		C66.79,21.97,67.51,25.54,67.88,29.19z"/>
	<path class="st1" d="M105.18,60.05c0-0.31-0.02-0.59-0.03-0.9c-0.14-3.34-0.49-6.61-1.1-9.8c-0.42-2.29-0.95-4.53-1.61-6.71
		c-0.27-0.9-0.54-1.78-0.83-2.66c-1-2.92-2.19-5.75-3.54-8.46c-1.08-0.05-2.17-0.07-3.25-0.07c-6.37,0-11.22,0.76-15.95,1.88
		c-3.69,0.88-7.27,2.07-10.69,3.54c-5.22,2.22-10.08,5.08-14.54,8.47c3.69,1.59,7.24,3.47,10.59,5.64c0.73-0.47,8.75-4.81,14-6.41
		c4.12-1.25,8.42-2.05,12.86-2.32c0.95,2.61,1.73,5.34,2.29,8.14c-6.29,1.1-12.27,3.07-17.83,5.78c-0.9,0.42-1.78,0.88-2.66,1.36
		c0.56,0.47,1.1,0.98,1.64,1.49c2.2,2.03,4.27,4.22,6.2,6.53c4.32-2.05,8.95-3.58,13.78-4.49c0,0.27,0,0.54,0,0.81
		c0,6.14-0.97,12.05-2.76,17.59c-0.41,0.39-0.81,0.8-1.24,1.17c-1.34,1.24-2.73,2.39-4.17,3.49c-2.86,2.17-5.93,4.08-9.19,5.69
		c-2.32,1.17-4.75,2.17-7.24,3c-3.2,1.08-6.53,1.88-9.97,2.37c-0.03,0-0.07,0.02-0.12,0.02c0,0-0.02-0.02-0.02-0.03
		c-2.32-0.34-4.59-0.81-6.81-1.42c-1.75-0.47-3.46-1.03-5.14-1.68c-1.68-0.63-3.31-1.34-4.88-2.12c-1.44-0.71-2.85-1.47-4.22-2.31
		c-0.07-0.03-0.14-0.07-0.2-0.12c-0.68-0.42-1.36-0.85-2.02-1.29c-2.46-1.61-4.76-3.42-6.92-5.39c0,0-0.05-0.14-0.12-0.34
		c-0.8-2.29-1.44-4.66-1.93-7.07c1.15,0.08,2.27,0.22,3.37,0.39c0.27,0.05,0.54,0.1,0.81,0.14c3.34,0.61,6.53,1.64,9.51,3.05
		c0.22,0.1,0.46,0.2,0.68,0.32c1.56,0.76,3.07,1.63,4.49,2.59c0.46,0.31,0.92,0.63,1.36,0.95c2.47,1.81,4.73,3.92,6.71,6.25
		c2.19-1.83,4.25-3.8,6.2-5.9c0.34-0.42,0.68-0.83,1.03-1.25c-2.34-2.66-4.97-5.08-7.83-7.2c-0.02,0-0.03-0.03-0.05-0.03
		c-2.25-1.68-4.68-3.14-7.2-4.41c-1.42-0.73-2.9-1.37-4.41-1.95c-1.9-0.73-3.85-1.34-5.86-1.81c-1.59-0.41-3.2-0.71-4.86-0.93
		c-1.69-0.24-3.39-0.39-5.14-0.46c0-0.46-0.02-0.9-0.02-1.36c0-2.19,0.12-4.34,0.37-6.47c1.36,0.05,2.68,0.14,4,0.29
		c3.54,0.37,7,1.07,10.32,2.07c0.27,0.07,0.53,0.15,0.8,0.24c3.32,1.05,6.53,2.39,9.56,4c2.54,1.36,4.97,2.88,7.27,4.59
		c0.22,0.17,0.46,0.34,0.68,0.51c2.64,2,5.1,4.25,7.34,6.69c0.19,0.2,0.37,0.41,0.56,0.61c2.68-2.37,5.58-4.51,8.69-6.34
		c-1.17-1.34-2.39-2.64-3.66-3.88c-1.36-1.34-2.76-2.61-4.22-3.81c-1.39-1.17-2.83-2.27-4.31-3.31c-1.37-0.98-2.8-1.9-4.25-2.76
		c-3.32-2-6.83-3.71-10.51-5.12c-3.05-1.19-6.2-2.14-9.46-2.86c-3.44-0.78-6.97-1.29-10.59-1.53h-0.05
		c-0.39-0.03-0.78-0.05-1.17-0.07c-1.03-0.05-2.08-0.07-3.14-0.07c-2.29,0-4.56,0.12-6.8,0.34c-0.92,3.56-1.54,7.24-1.86,11.02
		c-0.15,1.8-0.24,3.63-0.25,5.46v0.41c0,0.54,0,1.08,0.02,1.63c0,0.15,0,0.32,0,0.47c0.12,3.44,0.47,6.83,1.07,10.12
		c0.76,4.22,1.93,8.32,3.44,12.22c0.07,0.2,0.14,0.39,0.22,0.58c1.32,1.31,2.68,2.56,4.12,3.73c0.25,0.22,0.51,0.42,0.78,0.64
		c0.59,0.49,1.2,0.97,1.81,1.42c2.25,1.71,4.61,3.27,7.07,4.69c0.53,0.31,1.05,0.59,1.58,0.88c0.58,0.31,1.15,0.63,1.73,0.92
		c0.63,0.32,1.25,0.63,1.9,0.92c0.9,0.42,1.81,0.83,2.73,1.2c2.39,1,4.85,1.85,7.36,2.56c3.37,0.97,6.85,1.68,10.42,2.08
		c1.1-0.14,2.2-0.29,3.29-0.47c3.37-0.58,6.68-1.41,9.86-2.46c2.14-0.71,4.24-1.53,6.27-2.42c0.32-0.15,0.69-0.32,1.1-0.51
		c3.37-1.58,6.61-3.42,9.64-5.53c1.54-1.07,3.05-2.19,4.51-3.37c2.14-1.73,4.15-3.61,6.07-5.58c0.14-0.12,0.25-0.25,0.37-0.37
		c2.66-7.29,4.12-15.17,4.12-23.37c0-0.59,0-1.2-0.02-1.81L105.18,60.05z M36.08,93.71c0,0-0.07-0.1-0.1-0.14
		c0.05,0,0.1,0.02,0.14,0.03c-0.02,0.03-0.03,0.07-0.05,0.1H36.08z"/>
	<path class="st2" d="M168.57,23.92c0.59,0,0.9,0.34,0.9,0.9l0.9,20.41h-2l-0.83-19.61h-0.68l-5.53,16.71
		c-0.15,0.46-0.42,0.68-0.93,0.68h-2.03c-0.46,0-0.78-0.22-0.93-0.68l-5.56-16.71h-0.64l-0.8,19.61h-2l0.86-20.41
		c0-0.56,0.31-0.9,0.9-0.9h2.44c0.46,0,0.75,0.25,0.9,0.71l4.66,13.9c0.31,0.98,0.59,1.92,0.86,2.9h0.68
		c0.27-0.98,0.59-1.95,0.9-2.93l4.66-13.86c0.12-0.46,0.44-0.71,0.9-0.71h2.41H168.57z"/>
	<path class="st2" d="M192.54,34.56c0,8.24-2.14,11.02-8.22,11.02c-6.08,0-8.22-2.78-8.22-11.02s2.14-11.02,8.22-11.02
		C190.4,23.54,192.54,26.32,192.54,34.56z M178.22,34.56c0,6.92,1.54,9.24,6.12,9.24c4.58,0,6.08-2.32,6.08-9.24
		c0-6.92-1.51-9.24-6.08-9.24C179.76,25.32,178.22,27.65,178.22,34.56z"/>
	<path class="st2" d="M218.45,23.92c0.59,0,0.9,0.34,0.9,0.9l0.9,20.41h-2l-0.83-19.61h-0.68l-5.53,16.71
		c-0.15,0.46-0.42,0.68-0.93,0.68h-2.03c-0.46,0-0.78-0.22-0.93-0.68l-5.56-16.71h-0.64l-0.8,19.61h-2l0.86-20.41
		c0-0.56,0.31-0.9,0.9-0.9h2.44c0.46,0,0.75,0.25,0.9,0.71l4.66,13.9c0.31,0.98,0.59,1.92,0.86,2.9h0.68
		c0.27-0.98,0.59-1.95,0.9-2.93l4.66-13.86c0.12-0.46,0.44-0.71,0.9-0.71h2.41H218.45z"/>
	<path class="st2" d="M239.49,45.07c-2.9,0.19-6.08,0.19-9.1,0.19c-2.29,0-3.76-1.39-3.76-3.53V27.41c0-2.14,1.51-3.53,3.76-3.53
		c3.03,0,6.2,0,9.1,0.19l-0.12,1.54h-8.64c-1.32,0-2.07,0.78-2.07,2.25v5.22h9.51v1.64h-9.51v6.58c0,1.46,0.75,2.22,2.07,2.22h8.64
		L239.49,45.07z"/>
	<path class="st2" d="M261.06,44.36c0,0.59-0.27,0.86-0.83,0.86h-2.17c-0.49,0-0.78-0.22-0.98-0.68l-8.12-16.19
		c-0.37-0.78-0.93-1.76-1.2-2.56h-0.59c0.07,0.83,0.07,1.69,0.07,2.56v16.86h-2V24.78c0-0.59,0.27-0.86,0.83-0.86h2.1
		c0.49,0,0.78,0.22,0.98,0.68l7.93,15.81l1.42,2.86h0.64c-0.07-1.02-0.08-2.03-0.08-3.05v-16.3h2V44.36z"/>
	<path class="st2" d="M275.06,25.71v19.51h-2.03V25.71h-7.07v-1.8h16.22v1.8h-7.1H275.06z"/>
	<path class="st2" d="M302.06,34.56c0,8.24-2.14,11.02-8.22,11.02s-8.22-2.78-8.22-11.02s2.14-11.02,8.22-11.02
		S302.06,26.32,302.06,34.56z M287.72,34.56c0,6.92,1.54,9.24,6.12,9.24c4.58,0,6.08-2.32,6.08-9.24c0-6.92-1.51-9.24-6.08-9.24
		C289.27,25.32,287.72,27.65,287.72,34.56z"/>
	<path class="st2" d="M143.25,67.31c-1.69,0-2.69,0.93-2.69,2.24v5.03h15.49v8.95h-15.49v16.58h-13.61V66.76
		c0-5.78,4.27-9.75,10.29-9.75c7.2,0,15.8,0,21.75,0.86l-0.63,9.44h-15.1V67.31z"/>
	<path class="st2" d="M161.86,100.1V57.26h13.47v42.85H161.86z"/>
	<path class="st2" d="M211.57,58.56l-0.81,8.63c-3.76-0.07-9.85-0.12-15.24-0.12c-3.14,0-4.02,0.31-4.02,1.61
		c0,1.19,0.81,1.8,3.76,2.92l7.83,3.22c7.2,3.1,9.71,6.76,9.71,13.03c0,9.63-4.2,13.1-17.68,13.1c-2.95,0-9.22-0.19-16.75-2.12
		l0.81-9.44c7.46,0.19,13.41,0.31,15.73,0.31c3.44,0,4.27-0.31,4.27-1.49c0-1.19-0.63-1.75-2.95-2.61l-8.59-3.73
		c-7.02-3.1-9.66-6.64-9.66-12.92c0-9.75,4.76-12.61,17.8-12.61c4.51,0,10.53,0.37,15.73,2.17L211.57,58.56z"/>
	<path class="st2" d="M247.74,58.19l-1,9.81c-4.39-0.07-7.27-0.12-13.22-0.12c-4.27,0-5.32,2.12-5.32,10.8
		c0,8.68,1.07,10.81,5.32,10.81c6.27,0,9.97-0.07,14.17-0.49l1,9.81c-4.39,1.49-8.41,2.05-15.17,2.05
		c-14.36,0-19.63-5.83-19.63-22.17s5.27-22.17,19.63-22.17c6.76,0,9.9,0.49,14.24,1.68L247.74,58.19z"/>
	<path class="st2" d="M265.28,90.85l-2.19,9.25h-13.85l11.22-39.37c0.56-2.12,2.37-3.47,4.58-3.47h12.36c2.19,0,4.02,1.37,4.58,3.47
		l11.22,39.37h-13.85l-2.19-9.25h-11.85H265.28z M272.81,72.22c-0.31-1.56-0.63-3.36-0.75-4.9h-1.69c-0.19,1.56-0.44,3.36-0.75,4.9
		l-2.14,9.19h7.46L272.81,72.22z"/>
	<path class="st2" d="M305.59,87.19c0,1.31,1,2.24,2.63,2.24h14.54l0.63,10.07c-6.46,0.86-14.03,0.86-21.12,0.86
		c-6.27,0-10.29-3.97-10.29-9.75V57.27h13.61v29.93V87.19z"/>
</g>
</svg>
